<svg width="36" height="36" viewBox="0 0 36 36" fill="none" xmlns="http://www.w3.org/2000/svg">
  <path d="M18 3.375C15.175 3.375 12.4062 4.21875 10.0312 5.85C7.65625 7.48125 5.775 9.8 4.64375 12.525C3.5125 15.25 3.175 18.2625 3.675 21.175C4.175 24.0875 5.49375 26.775 7.46875 28.8187C9.44375 30.8625 11.9875 32.2375 14.7562 32.7562C17.525 33.275 20.3875 32.925 22.9812 31.7375C25.575 30.55 27.775 28.5687 29.3375 26.0625C30.9 23.5562 31.7125 20.6437 31.7125 17.6687C31.7125 13.7 30.175 9.875 27.4437 7.05625C24.7125 4.2375 21.0062 3.375 18 3.375ZM24.1937 24.4812C24.075 24.6 23.9562 24.7187 23.8375 24.7187C23.7187 24.8375 23.6 24.8375 23.4812 24.8375C23.3625 24.8375 23.2437 24.8375 23.125 24.7187C23.0062 24.7187 22.8875 24.6 22.7687 24.4812L18 19.7125L13.2312 24.4812C12.875 24.8375 12.4 24.8375 12.0437 24.4812C11.6875 24.125 11.6875 23.65 12.0437 23.2937L16.8125 18.525L12.0437 13.7562C11.6875 13.4 11.6875 12.925 12.0437 12.5687C12.4 12.2125 12.875 12.2125 13.2312 12.5687L18 17.3375L22.7687 12.5687C23.125 12.2125 23.6 12.2125 23.9562 12.5687C24.3125 12.925 24.3125 13.4 23.9562 13.7562L19.1875 18.525L23.9562 23.2937C24.3125 23.65 24.3125 24.125 23.9562 24.4812H24.1937Z" fill="white"/>
</svg>