<svg width="36" height="36" viewBox="0 0 36 36" fill="none" xmlns="http://www.w3.org/2000/svg">
  <path d="M21.0375 3.02344C20.1625 3.02344 19.4062 3.77969 19.4062 4.65469V8.57812H16.5938V4.65469C16.5938 3.77969 15.8375 3.02344 14.9625 3.02344C14.0875 3.02344 13.3312 3.77969 13.3312 4.65469V8.57812H10.575C9.7 8.57812 8.94375 9.33437 8.94375 10.2094V13.0219H4.725C3.85 13.0219 3.09375 13.7781 3.09375 14.6531C3.09375 15.5281 3.85 16.2844 4.725 16.2844H8.94375V19.0969H4.725C3.85 19.0969 3.09375 19.8531 3.09375 20.7281C3.09375 21.6031 3.85 22.3594 4.725 22.3594H8.94375V25.7906C8.94375 26.6656 9.7 27.4219 10.575 27.4219H13.3312V31.3453C13.3312 32.2203 14.0875 32.9766 14.9625 32.9766C15.8375 32.9766 16.5938 32.2203 16.5938 31.3453V27.4219H19.4062V31.3453C19.4062 32.2203 20.1625 32.9766 21.0375 32.9766C21.9125 32.9766 22.6688 32.2203 22.6688 31.3453V27.4219H25.425C26.3 27.4219 27.0562 26.6656 27.0562 25.7906V22.3594H31.275C32.15 22.3594 32.9062 21.6031 32.9062 20.7281C32.9062 19.8531 32.15 19.0969 31.275 19.0969H27.0562V16.2844H31.275C32.15 16.2844 32.9062 15.5281 32.9062 14.6531C32.9062 13.7781 32.15 13.0219 31.275 13.0219H27.0562V10.2094C27.0562 9.33437 26.3 8.57812 25.425 8.57812H22.6688V4.65469C22.6688 3.77969 21.9125 3.02344 21.0375 3.02344ZM10.575 11.8406H25.425V24.1594H10.575V11.8406Z" fill="white"/>
</svg>