<svg width="36" height="36" viewBox="0 0 36 36" fill="none" xmlns="http://www.w3.org/2000/svg">
  <path d="M28.5 31.5H26.25V29.25C26.25 27.1687 24.5812 25.5 22.5 25.5H13.5C11.4187 25.5 9.75 27.1687 9.75 29.25V31.5H7.5V29.25C7.5 25.9312 10.1812 23.25 13.5 23.25H22.5C25.8187 23.25 28.5 25.9312 28.5 29.25V31.5ZM18 20.25C13.95 20.25 10.5 16.8 10.5 12.75C10.5 8.7 13.95 5.25 18 5.25C22.05 5.25 25.5 8.7 25.5 12.75C25.5 16.8 22.05 20.25 18 20.25ZM18 7.5C15.0375 7.5 12.75 9.7875 12.75 12.75C12.75 15.7125 15.0375 18 18 18C20.9625 18 23.25 15.7125 23.25 12.75C23.25 9.7875 20.9625 7.5 18 7.5Z" fill="white"/>
</svg>