<svg width="36" height="36" viewBox="0 0 36 36" fill="none" xmlns="http://www.w3.org/2000/svg">
  <path d="M18 3.375C10.0312 3.375 3.375 10.0312 3.375 18C3.375 25.9688 10.0312 32.625 18 32.625C25.9688 32.625 32.625 25.9688 32.625 18C32.625 10.0312 25.9688 3.375 18 3.375ZM18 30.375C11.275 30.375 5.625 24.725 5.625 18C5.625 11.275 11.275 5.625 18 5.625C24.725 5.625 30.375 11.275 30.375 18C30.375 24.725 24.725 30.375 18 30.375Z" fill="white"/>
  <path d="M18 9.5625C13.2312 9.5625 9.5625 13.2312 9.5625 18C9.5625 22.7688 13.2312 26.4375 18 26.4375C22.7688 26.4375 26.4375 22.7688 26.4375 18C26.4375 13.2312 22.7688 9.5625 18 9.5625ZM18 24.1875C14.5125 24.1875 11.8125 21.4875 11.8125 18C11.8125 14.5125 14.5125 11.8125 18 11.8125C21.4875 11.8125 24.1875 14.5125 24.1875 18C24.1875 21.4875 21.4875 24.1875 18 24.1875Z" fill="white"/>
  <path d="M18 14.0625C15.75 14.0625 14.0625 15.75 14.0625 18C14.0625 20.25 15.75 21.9375 18 21.9375C20.25 21.9375 21.9375 20.25 21.9375 18C21.9375 15.75 20.25 14.0625 18 14.0625ZM18 19.6875C17.0062 19.6875 16.3125 18.9938 16.3125 18C16.3125 17.0062 17.0062 16.3125 18 16.3125C18.9938 16.3125 19.6875 17.0062 19.6875 18C19.6875 18.9938 18.9938 19.6875 18 19.6875Z" fill="white"/>
</svg>