<svg width="40" height="41" viewBox="0 0 40 41" fill="none" xmlns="http://www.w3.org/2000/svg">
  <path opacity="0.5" d="M20.5891 26.4315L11.3591 31.1315C10.9591 31.3315 10.4591 31.1315 10.2591 30.7315C10.1591 30.6315 10.0591 30.4315 10.0591 30.3315V20.7315C10.0591 20.4315 10.1591 20.1315 10.4591 19.9315L19.6891 15.2315C20.0891 15.0315 20.5891 15.2315 20.7891 15.6315C20.8891 15.7315 20.9891 15.9315 20.9891 16.0315V25.6315C20.9891 25.9315 20.8891 26.2315 20.5891 26.4315Z" fill="white"/>
  <path d="M20.5912 26.4315L29.8212 31.1315C30.2212 31.3315 30.7212 31.1315 30.9212 30.7315C31.0212 30.6315 31.1212 30.4315 31.1212 30.3315V20.7315C31.1212 20.4315 31.0212 20.1315 30.7212 19.9315L21.4912 15.2315C21.0912 15.0315 20.5912 15.2315 20.3912 15.6315C20.2912 15.7315 20.1912 15.9315 20.1912 16.0315V25.6315C20.1912 25.9315 20.2912 26.2315 20.5912 26.4315Z" fill="white"/>
  <path opacity="0.5" d="M19.6913 15.2315L10.4613 19.9315C10.1613 20.1315 9.76133 20.1315 9.46133 19.9315L4.66133 17.3315C4.26133 17.1315 4.06133 16.7315 4.16133 16.3315C4.16133 16.2315 4.26133 16.1315 4.26133 16.0315L13.4913 11.3315C13.7913 11.1315 14.1913 11.1315 14.4913 11.3315L19.2913 13.9315C19.6913 14.1315 19.8913 14.5315 19.7913 14.9315C19.8913 15.0315 19.7913 15.1315 19.6913 15.2315Z" fill="white"/>
  <path d="M19.6913 15.2315L28.9213 19.9315C29.2213 20.1315 29.6213 20.1315 29.9213 19.9315L34.7213 17.3315C35.1213 17.1315 35.3213 16.7315 35.2213 16.3315C35.2213 16.2315 35.1213 16.1315 35.1213 16.0315L25.8913 11.3315C25.5913 11.1315 25.1913 11.1315 24.8913 11.3315L20.0913 13.9315C19.6913 14.1315 19.4913 14.5315 19.5913 14.9315C19.4913 15.0315 19.5913 15.1315 19.6913 15.2315Z" fill="white"/>
</svg>
